<svg width="360" height="131" xmlns="http://www.w3.org/2000/svg"><g fill="none" fill-rule="evenodd"><path fill="#FFA06A" d="M316.216 116.532l1.248-.073-.586-.015z"/><path d="M328.434 78.598c.049-.07.095-.245.061-.765a.512.512 0 00-.117-.203l.027.06.03.908m-299.173 0l.029-.908.027-.06a.512.512 0 00-.117.203c-.034.52.012.694.06.765m.123-55.971l.036-.556-.23-.238c.03.384.096.77.194.794" fill="#7BCCFF"/><path d="M328.53 79.752c-.007-.759-.012-1.426-.015-1.94l-.075-.182c-.131.86-.03 1.506.09 2.122m-299.34 0c.118-.616.22-1.261.09-2.122l-.076.182c-.003.514-.008 1.181-.015 1.94m9.73-50.641l.372.33c-.105-.107-.17-.187-.287-.303-.058-.037-.049-.012-.085-.027M68.2 54.68l.076.03-.168-.127.093.097z" fill="#7BCCFF"/><path d="M328.403 77.962a17.346 17.346 0 01-.025-.332c0 .087.003.184.005.279l.02.053zm-18.281-42.786c1.584-1.368-.482-.036 1.166-1.213-.531.496-.192.324.063.192l-1.23 1.02zm-3.773 3.213c-.522.378-.434.278-.071-.132-.006.062.69-.464.07.132zm-19.25 17.172l.646-.483c-.303.249-.641.575-.647.483zm-7.562 6.427l.048.184c-.01-.13-.528.274-.048-.184zm-8.312 7.168l-.583.57.785-.78-.202.21zm-44.62 40.01l-.287-.022c.51-.539.596-.301.287.023zm-96.857 0c-.31-.323-.224-.56.288-.022l-.288.023zm-44.622-40.01l-.2-.21.785.78-.585-.57zm-8.357-6.984l.047-.184c.478.458-.04.053-.047.184zm-8.16-7.094l.646.483c-.006.092-.343-.234-.646-.483zM50.004 38.389c-.62-.596.077-.07.07-.132.364.41.45.51-.07.132zM45 34.155c.257.132.597.304.065-.192 1.648 1.177-.418-.155 1.166 1.213L45 34.155zM29.211 77.909c.003-.095.003-.192.005-.28l-.027.333.022-.053zm236.219-2.705c-.19.191-.344.351-.28.327.214-.199.284-.298.28-.327m32.543-28.65l.231-.207c.046-.082.085-.17.117-.254l-.348.46zm7.3-5.941c.058-.182.19-.359.367-.543-.024-.037-.09-.051-.21-.037-.223.185-.143.43-.157.58M254.19 85.066c.019-.014.024-.02.043-.031.216-.228.085-.107-.044.031" fill="#7BCCFF"/><path d="M326.457 23.415l.182-.186c-.025.3-.077.603-.154.622l-.028-.436zm-9.835 8.053c.08-.083.134-.146.226-.237.046-.029.039-.01.067-.021l-.293.258zM327.17 79.15c.027.407-.01.544-.048.6-.006-.193-.014-.415-.021-.712l-.023-.048a.38.38 0 01.092.16zm.073 33.402l.134.457c.014-1.267-.541-1.6-.553-2.768l.28-.352c-.003-2.213.242-4.45-.011-6.636.04.036.123.1.132.459.008-1.041.19-4.026-.193-3.648.25-.026.025-2.283-.087-3.477l.184.186c-.236-1.008-.299-1.04-.366-2.448.025-.333.15-.292.102.152.096-1.113-.175-.868-.077-2.215l.119.502c.013-1.143-.05-1.052-.188-1.681-.073-.72.048-2.171.215-2.34-.102-.155-.238-.78-.19-1.454.063-.091.101.154.12.278.127-1.912-.214-2.844-.032-4.16.061-.028.09-.113.11-.222-.004 1.52-.016 2.744-.03 2.628.171 0 .202-1.227.438-.25-.128-.985-.409-2.67-.328-3.865a.604.604 0 01.06-.16l.019.123a4.16 4.16 0 00-.03-.755c.03-.382.05-.624.053-.991.14-.14.077-1.406.082-2.019-.186.052-.155-.751-.31 0 .013-.097.022.116.03.524.006.089.013.192.02.26l-.016-.042.011 1.52c-.094-.483-.174-.987-.07-1.664a14.97 14.97 0 01-.302-.854c.261-.838.401-2.453.562-2.677-.105-1.869-.069-4.403-.42-5.577-.044-.53.1-.61.155-.81.035.308.031.672.081.839-.09-1.064-.034-3.149-.28-3.402.111-1.34.226.754.186-1.086l.075.247c.392-3.618-.626-5.882-.123-9.895-.03.278-.046.417-.086.474.22-4.576-.208-9.427.144-13.942.07-1.282-.087-1.42-.206-2.205l.202-.277-.232-1.34c-.17-1.898.491-3.287.17-5.69l-.134.31c.027-.864-.079-2.734.077-2.591-.025-.088-.142-.282-.071-.62l.105-.027-.18-2.12c.077-1.643.416.257.438-2.142-.04-.892-.306-2.54-.377-2.205 0 .06-.005.126-.01.19-.038-.001-.105.025-.205.098l-.01-.156c-.019-.01-.038-.023-.059-.037v-.125l-.082.072c-.208-.148-.41-.278-.576.508l-6.608 5.826.038-.103-.184.232-.922.812c.004-.055.054-.144.225-.317-.774.5-.54.605-1.227 1.01-.08.038-.06.004-.005-.057l-.613.649c.092-.16-.242-.048.196-.38-1.303.937-1.793 1.856-2.382 2.097l.088-.1c-1.194 1.145-.618.742-.705.997l-.775.684-.803.254-.028.293c-.177.146-.526.433-.517.317-.545.666.167-.03-.115.394-.948.59-2.217 2.068-2.617 1.992-.194.375.868-.607.058.247-.482-.034-.977.942-1.837 1.488.113-.337.889-.896.028-.35-.253.626-1.51 1.244-2.107 1.847.13.206-1.314 1.292-2.327 2.293.013-.12-2.095 1.67-3.143 2.479l.002-.055c-.03.35-1.085 1.217-1.795 1.912-.069-.135.027-.295.388-.7l-.699.618c-.113.203-.305.426-.74.848l.055-.29c-.926.829-1.736 1.812-3.014 2.78.03.126.59-.134.581.056l-.635.56c-.017-.063.017-.16.177-.326-.102.105-.338.398-.582.561l.403-.561c-.591.432-.2.348-.645.723-.079-.105-.386.215-.392.084.102-.109.417-.297.55-.482-.51.417-1.156.883-1.417.984.092.017.117.13-.233.46-.925.83-.424.166-1.011.594-.167.266-.824.72-.709.879-.274.241-.386.217-.526.27-.424.49-2.236 2.005-1.553 1.68l.133-.099-.073.076c-1.452 1.537-3.36 2.814-4.873 4.258l-.04-.051c-.887.882-2.054 1.87-2.63 2.564-.277.244-.733.487-.666.325-.684.668-.714.794-1.82 1.625.643-.719-.317.143.681-.711-.967.776-1.248.884-2.127 1.898.227-.424-.84.46-1.25.887l.732-.485c-.482.456-.925.827-1.377 1.208l.093-.375c-2.083 1.478-3.13 3.364-4.877 4.31-.4.557 1.106-.832.776-.301-.897.75-2.02 1.318-2.294 1.56-1.28.966-.904 1.225-2.214 2.27.212-.084.503-.061-.386.82-.894.75-1.295.705-.785.17.206-.19.325-.26.332-.233.265-.27.615-.622.21-.38l-.06.157c-.49.325-1.69 1.393-1.492 1.048-.612.64-.197.345.321-.057-1.2.906-1.758 1.545-2.966 2.508.213-.13.444-.211.261-.05-1.762 1.423-.649.769-1.776 1.808-.731.487.045-.419-1.046.677-.76.561-.288-.023-.05-.318-.954 1.04-2.037 1.663-2.657 2.173l.513-.537c-.307.32-.58.56-.856.803l.422-.163c-.346.268-.622.51-.659.456-.268.373.43-.032-.142.66-.487.324-1.267 1.231-1.555 1.209 1.413-1.153-.291-.023.843-1.068a7.254 7.254 0 01-.825.721c-.064.027.019-.072.1-.16-1.433 1.016-.444.706-1.803 1.897.094-.24-.465.113-.668.326.547-.48.391-.086-.05.424-.93.698-.899.883-1.361 1.276l.549-.426c-.098.242-.544.615-1.125 1.176-.113-.023.509-.53.265-.371-.536.746-1.663 1.181-2.507 2.112-.49.323-.19-.128-.607.17-.95 1.04-1.248.884-2.27 1.951.425-.163.456-.241-.22.56l1.743-1.684-1.014 1.198c.55-.481 1.09-1.094 1.438-1.364-.47.586-.44.506-.09.373-.908.485-1.396 1.414-2.369 2.059l-.234-.314c-1.42 1.021-2.183 2.191-3.941 3.61l.589-.427c-.125.315-1.03.938-1.538 1.466-.036-.14-.41.126-.699.273.093.045-1.245 1.084-1.224 1.413l-.872.54c-1.413 1.153-1.311 1.652-2.655 2.776.301-.453-.359.004.455-.846-.44.384-.85.715-.797.79-.31.163-1.1 1.201-1.585 1.466-.148.205-.117.36-.617.786-.07.028-.04-.05-.04-.05.04.05-.714.746-.186.474-1.624.888-3.759 3.352-5.168 4.128-.94.872-2.07 1.914-2.918 2.7.029-.078-.04-.051.132-.186-.756.587-1.06.977-1.152 1.183-.117.198-.193.356-.668.769 14.235.089 28.21.144 41.5.148 12.384.006 24.185-.034 35.072-.126a2263.034 2263.034 0 0018.537-.224 1469.6 1469.6 0 0011.8-.24l.009-.894c-.008-.62-.016-1.301-.025-2.196z" fill="#989898"/><path d="M328.449 76.63l-.017-.213-.054.308.076.184c-.003-.094-.003-.192-.005-.279m-16.835-42.667c-2.09 1.49.53-.197-1.479 1.536l1.56-1.293c-.327.167-.755.385-.08-.243m-4.753 5.049c-.46.519-.572.647.09.167.786-.755-.1-.09-.09-.167m-34.904 30.394l.253-.267-.995.987zM91.216 75.204c-.004.029.066.128.28.327.063.024-.09-.136-.28-.327M68.928 56.408l-.82-.612c.384.316.813.726.82.612m-10.55-10.315c.032.084.07.17.117.254l.231.207-.348-.461zm-7.088-6.06c-.119-.014-.182 0-.209.04.18.181.309.358.367.54-.014-.15.066-.393-.158-.58m-22.1-19.16a.305.305 0 00.13-.044l.015-.209-.146.253zm73.088 64.162l.044.031c-.131-.138-.26-.26-.044-.031" fill="#7BCCFF"/><path d="M39.51 29.09c.03.012.021-.007.068.022.093.092.145.156.228.24l-.296-.261zm-9.636-7.44c-.077-.022-.13-.326-.155-.632l.184.19-.03.441zm-.62 55.804l-.022.72c-.038-.058-.075-.195-.05-.606a.43.43 0 01.095-.164l-.024.05zm105.656 35.487c.174.137.102.108.133.187l-2.938-2.728c-1.419-.787-3.568-3.278-5.204-4.177.53.275-.228-.427-.187-.477 0 0 .03.077-.04.05-.505-.43-.475-.589-.621-.796-.49-.266-1.284-1.316-1.597-1.484.054-.073-.36-.408-.802-.798.817.862.154.398.458.858-1.353-1.137-1.25-1.643-2.676-2.809l-.875-.544c.02-.333-1.328-1.384-1.234-1.432-.29-.146-.666-.417-.703-.273-.51-.537-1.425-1.166-1.549-1.485l.594.435c-1.77-1.435-2.538-2.62-3.969-3.652l-.235.318c-.982-.654-1.471-1.591-2.388-2.084.354.137.385.218-.089-.375.35.273.893.89 1.448 1.378l-1.02-1.21 1.755 1.702c-.68-.81-.65-.731-.224-.566-1.029-1.079-1.327-.921-2.283-1.973-.42-.3-.12.155-.611-.172-.85-.94-1.987-1.381-2.525-2.135-.245-.164.38.352.267.375-.586-.57-1.034-.945-1.133-1.189l.553.431c-.466-.398-.435-.585-1.372-1.29-.443-.516-.602-.917-.049-.43-.207-.217-.767-.571-.672-.329-1.369-1.206-.374-.893-1.816-1.918.082.089.165.189.099.162a7.438 7.438 0 01-.83-.731c1.143 1.058-.575-.085.85 1.079-.29.023-1.075-.893-1.566-1.222-.578-.698.125-.288-.143-.665-.037.053-.317-.193-.664-.462l.426.165c-.28-.248-.555-.488-.864-.813l.518.542c-.625-.516-1.717-1.143-2.676-2.197.24.298.716.89-.05.321-1.098-1.106-.317-.19-1.055-.683-1.135-1.05-.012-.388-1.786-1.827-.186-.164.048-.081.26.05-1.213-.974-1.776-1.62-2.984-2.536.52.406.94.704.323.058.197.348-1.011-.733-1.502-1.06l-.062-.16c-.406-.246-.054.112.21.385.01-.029.128.044.337.236.514.54.11.587-.793-.173-.893-.89-.6-.913-.386-.829-1.319-1.056-.942-1.318-2.23-2.295-.277-.244-1.408-.82-2.309-1.578-.332-.536 1.185.868.781.303-1.76-.955-2.813-2.861-4.91-4.356l.093.377c-.454-.383-.903-.758-1.386-1.22l.736.49c-.411-.43-1.488-1.327-1.258-.898-.885-1.023-1.168-1.133-2.142-1.92 1.005.866.039-.005.686.722-1.113-.84-1.144-.968-1.832-1.643.067.163-.393-.083-.671-.329-.58-.702-1.755-1.703-2.648-2.593l-.043.052c-1.523-1.463-3.443-2.752-4.904-4.306l-.073-.077.133.1c.688.33-1.137-1.204-1.564-1.699-.143-.054-.255-.03-.53-.273.117-.16-.547-.62-.713-.889-.591-.434-.087.237-1.018-.6-.352-.335-.327-.448-.234-.467-.265-.1-.917-.574-1.427-.995.133.189.45.379.553.487-.006.134-.315-.19-.394-.085-.449-.377-.055-.292-.65-.73l.406.568c-.247-.165-.485-.461-.586-.567.159.165.194.265.178.329l-.64-.566c-.007-.192.555.07.586-.057-1.29-.978-2.103-1.972-3.035-2.811l.056.292c-.439-.425-.632-.65-.746-.856l-.704-.625c.362.408.459.571.39.706-.716-.702-1.776-1.58-1.807-1.933l.002.057c-1.057-.82-3.18-2.628-3.164-2.508-1.02-1.01-2.476-2.11-2.345-2.317-.6-.61-1.867-1.235-2.12-1.868-.868-.552-.085.014.027.354-.864-.552-1.363-1.54-1.848-1.504-.816-.864.253.129.058-.25-.404.075-1.68-1.42-2.635-2.017-.284-.427.433.276-.116-.396.008.118-.342-.175-.52-.321l-.029-.298-.808-.254-.78-.693c-.088-.258.492.15-.71-1.008l.089.102c-.594-.246-1.087-1.174-2.4-2.12.44.335.105.221.198.38l-.617-.655c.054.061.074.098-.008.058-.692-.408-.456-.514-1.233-1.02.172.175.22.263.226.32l-.928-.822-.185-.233.039.104-6.654-5.89c-.168-.795-.373-.665-.582-.515l-.083-.073v.127c-.02.012-.039.027-.058.037l-.01.158c-.1-.074-.168-.1-.208-.099-.002-.065-.008-.134-.008-.192-.072-.338-.338 1.328-.379 2.23.021 2.426.363.502.44 2.164l-.18 2.145.105.027c.07.34-.046.539-.071.627.156-.146.05 1.747.077 2.619l-.137-.312c-.323 2.43.344 3.834.174 5.754l-.234 1.355.203.28c-.12.791-.278.932-.207 2.23.354 4.564-.08 9.471.145 14.096-.042-.058-.056-.198-.087-.479.507 4.058-.518 6.349-.124 10.008l.076-.252c-.04 1.86.075-.254.187 1.1-.247.256-.191 2.365-.282 3.438.05-.167.045-.536.081-.846.054.202.201.28.157.82-.354 1.186-.317 3.749-.423 5.638.162.227.303 1.859.566 2.707-.06.196-.184.546-.304.864.105.683.024 1.194-.071 1.683.004-.602.01-1.131.011-1.539l-.015.042c.004-.069.012-.17.02-.263.007-.412.017-.627.028-.527-.154-.76-.123.05-.31 0 .005.617-.06 1.899.082 2.04.002.372.023.617.052 1.003a4.056 4.056 0 00-.029.764l.02-.125c.027.044.042.102.06.16.08 1.21-.201 2.912-.33 3.909.237-.987.266.254.438.254-.014.115-.023-1.122-.027-2.657.017.11.048.196.11.223.184 1.331-.16 2.272-.033 4.208.02-.125.058-.374.122-.283.048.683-.089 1.316-.191 1.472.168.17.29 1.637.216 2.364-.14.637-.203.544-.19 1.703l.12-.508c.1 1.362-.175 1.114-.077 2.237-.048-.446.078-.489.1-.152-.065 1.424-.13 1.456-.368 2.476l.187-.188c-.112 1.208-.34 3.49-.087 3.514-.389-.38-.205 2.638-.197 3.69.011-.361.093-.427.135-.463-.257 2.208-.008 4.473-.013 6.708l.282.356c-.01 1.183-.568 1.52-.557 2.801l.135-.464c-.001.33-.005.603-.007.88 14.76.306 46.864.917 85.697 1.494 6.874.102 13.967.204 21.202.303-.14-.224-.447-.578-1.09-1.078z" fill="#4C4C4C"/><path d="M29.262 76.727l-.053-.31c-.008.094-.01.14-.017.216 0 .087-.003.184-.003.279l.073-.185zM68.24 54.654l-.056-.042c-.027-.012-.04-.014-.076-.029.037.01.083.04.131.07M45.08 33.963c.674.628.246.41-.08.243l1.56 1.293c-2.01-1.733.61-.047-1.48-1.536m5.11 5.216c.662.48.55.352.09-.167.008.077-.875-.588-.09.167m26.432 22.915c.012-.165.669.347.06-.233l-.06.233zm8.766 7.312l.742.72-.995-.987zm94.414 44.659v-.046h-.037l.001.046-.013-.046h-.01c-.001-.003-.003.007-.007 0h-.154c-.004.034-.01.046-.015 0h-5.648c2.026.029 4.05.056 6.081.082-.015-.01-.032-.014-.05-.036h-.148zM171.43 43.83c.353.004.487-.074.365-.149-.564-.005-1.097-.012-1.525-.014.523.065 1.353.114 1.16.162m19.516 71.453h-1.256l-.297.061.101-.06-9.304-.05c-.033.032-.066.03-.1-.002h-.04c-.017.03-.034.03-.05.04 3.566.048 7.136.096 10.712.142l-.152-.026c.247-.017.346-.058.386-.105m34.755.1c.31-.022.433-.083.474-.15h-1.15c-.08.072.046.155.195.235l.9.007.678-.136c-.396-.046-.9.03-1.097.044" fill="#7BCCFF"/><path d="M226.795 115.232c-.394-.007-.474.046-.579.092l.71.003c-.075-.02-.136-.046-.13-.095m-54.093-71.551c.435-.007.683-.01.863-.014-.197.002-.503.007-.863.01v.004zm72.05 71.55c-.694.102-1.693.127-2.726.153l3.649.015c-.097-.083-.554-.168-.923-.168m32.544.346c.511-.003 1.032-.003 1.54-.005l.538-.34c-.514-.014-1.25.15-2.078.345m-30.405-.327c.496.002.983.002 1.476.005a12.988 12.988 0 00-1.476-.005m19.41-.019c-.845.049-1.124.15-1.167.248l2.433-.002c-.098-.112-.505-.226-1.266-.246m-25.492.001c.159 0 .317 0 .475.002v-.002c-.156.005-.319-.002-.474 0m-6.081.072l4.865.03c-1.621-.056-3.284-.182-4.865-.03" fill="#7BCCFF"/><path d="M266.351 115.287c.287-.017.526-.034.455-.056-.309.008-.44.032-.455.056m-30.534.025c.075-.085-.557-.064-1.087-.08l1.087.08zm-57.019-1.247l-.002-.046h-.012zm113.885-71.611c1.326.184-2.153.269-.158.47-.188-.082 1.81-.356.158-.47m5.29 57.317c.022-.005.066-.073.175-.308-.049.056-.112.18-.175.308m2.715-11.225c-.022.044-.04.083-.061.131-.027.175-.08.4-.222.772.112-.33.17-.434.283-.903m2.374-10.916a8.75 8.75 0 00-.107.233l-.117.431.224-.664z" fill="#033753"/><path d="M226.216 115.278c.494.038.623.002.728-.044-.163 0-.326-.003-.492-.003l-.236.047zm-32.884.082c-.136.016-.265.032-.42.044-.058-.012-.087-.028-.118-.043h.538zm-2.386-.129c.786.158.793.133 1.583.346.093.034.05.055-.035.07l.967-.123c-.19.087.16.293-.433.231 1.735.24 2.8-.308 3.452.004l-.146.027c1.801-.104 1.041-.225 1.297-.425h1.126l.833.512.238-.302c.247.012.738.033.649.154.924-.207 3.413-.117 3.945.027.43-.23 1.332-.064 2.425.176.66-.453 2.127.099 3.05.012.042-.36 2.003-.15 3.55-.27-.098.122 2.91.2 4.348.329l-.043.062c.28-.367 2.607-.068 2.022.03l1.016-.003c.24-.117.555-.178 1.214-.218l-.255.27c1.353-.015 2.723-.32 4.462-.138.037-.095-.133-.216-.275-.339a6353.628 6353.628 0 01-34.99-.432zm76.482.241c-.3.007-.447-.022-.434-.054-.407.034-.939.073-.441.175l.163-.092c.623.094 2.352.085 1.946.235.95-.087.406-.15-.297-.199 1.612.134 2.518.003 4.178.095-.264-.051-.507-.16-.245-.16 2.435.114 1.072-.177 2.722-.216.937.14-.335.337 1.325.218.861.083.412.201.011.284.737-.112 1.485-.328 2.158-.527-3.505.013-7.07.02-10.693.022.073.093-.035.185-.393.219m-20.046-.241c.173.01.36.025.587.044-1.052.134.36.119-1.077.097 1.357.068 1.665.192 3.123-.02-.496.197 1.022.248 1.667.19l-.951-.14c.726-.03 1.36-.013 2.005.004l-.35.26c2.78.318 5.01-.539 7.127-.01.734-.182-1.51-.126-.853-.34 1.279.034 2.61.408 3.01.41 1.75.144 1.633-.38 3.465-.281-.1-.041-.19-.11-.16-.182l-2.308.002c-5.004-.002-10.114-.014-15.285-.034m-5.737.008l-2.05-.008c.693.02 1.376.02 2.05.008" fill="#FFA06A"/><path d="M240.81 115.307a70.63 70.63 0 012.098-.066c-.696-.002-1.397-.005-2.092-.01l-.005.076zm4.866-.01c.479-.022.8-.046 1.109-.063-.37-.003-.73-.003-1.1-.003.027.022.04.047-.01.066m-66.796-.066h-.095a.101.101 0 00.095 0m48.173.139c-.17.014-.58-.063-.836-.003.75.027 1.658.12 1.959.236-.066-.088 0-.209.55-.228 1.421-.013.485.186 1.314.264.345-.107 1.25.005 1.275-.226.416 0 .494.11.653.173.736-.105 3.434-.032 2.607-.277l-.189-.014c.037-.005.076-.008.121-.013.02 0 .041 0 .061-.002-2.59-.015-5.187-.03-7.802-.049.14.047.353.054.287.139m51.462.422c.357-.027.82-.32 1.247-.56h-.36l-.887.56zm-2.18-.561c-.083.01-.168.032-.253.04l.253-.04m-97.081-.958c-.08-.053-.16-.167-.24-.254v.208h-.23v.046h.19c.022.022.044.027.064.037.034 0 .065 0 .097.002.022-.01.044-.01.063-.039h.056z" fill="#FFA06A"/><path d="M179.313 66.311c.045-.121.089-.275.13-.525.01 2.019-.027.35-.13.525zm2.812-21.664l-.052.023a.452.452 0 01.174-.09c.44-.027.588.006.648.04l-.77.027zm97.253 71.17c.47.024.864.026.857.088.482-.098 13.576-5.217 14.113-6.587l.272.167c.758-2.078.974-3.852 1.865-6.59l-.313.868c-.002-.421.49-1.718.71-2.635.071.125.272-.421.444-.779-.085.018.605-2.024.492-2.358l.49-1.182c.713-2.214.484-2.67 1.153-4.805-.089.692.268-.256-.085 1.216.214-.717.422-1.355.36-1.395.184-.394.462-2.047.747-2.666.046-.321-.023-.463.224-1.267.044-.079.046.023.046.023-.046-.023.309-1.287-.006-.63.951-2.082 1.808-6.19 2.633-8.004l1.373-4.907c0 .104.045.025-.044.29.67-1.924.085-1.324.843-3.513.492-1.075-.266 1.22.002.536.403-.175.754-2.714 1.38-4.136l-.088.37c.446-1.1.71-2.852 1.289-4.718 0 0 0 .102.042.03.22-1.35.887-3.803 1.377-5.627-.044.615-.18.848.046.56.222-.818-.268.15.174-1.48.224-.497.627-1.636.804-1.732l-.443 1.526c.403-.706.578-1.974.845-2.764l.044.134c.667-2.345.488-2.46 1.244-4.963l-.135.235c.22-1.453.445-1.103.712-2.531l.312-.333.588-2.35-2.999.184c.297-.07.712-.127 1.169-.179.438-.052 1.294-.1 1.992-.144-.138.557-.27 1.088-.383 1.55L314 43.69c-.644.017-1.354.039-1.963.056-.4.023-.73.056-.874.1.328-.027.696-.089 1.051-.054-1.007.2-2.245.304-3.823.313.276-.476-4.087-.086-5.227-.446-2.773.198-5.503-.028-8.735.025 1.15.36-.944.018-.743.396-.74.03-1.028.025-1.101.002l.154.016-.162-.018v.002l-2.28-.207c-.542-.106.716-.09.646-.175-1.649-.016-.692-.154-1.784-.246.226.134-.57.2-1.512.155l1.325.164c-2.303.219-1.992-.302-4.313-.083l.733-.125c-1.19.079-4.393.033-5.56.346-.21-.042-.49-.142.034-.175-2.846-.023-6.336.375-8.548.206l.214-.094c-.53.03-.924.182-1.59.094.036-.039.215-.094-.032-.098-.28.034-1.41.175-2.114.125l.602-.108c-2.778-.1-4.26.288-6.589.371.004-.273-2.181-.344-3.271-.379l.037-.04c-3.233-.008-5.492.271-8.485.402-1.861-.28-6.298-.071-9.285-.214.457.047-.074.214-.604.245-.702-.05-1.938.205-1.828-.047l.25.004c-.53-.242-1.97-.165-3.095-.161l-.184.329c-2.945-.452-7.709.236-9.318-.177l-2.291.182.037-.177a108.41 108.41 0 00-5.382.02l.496-.13c-1.373 0-1.73.52-2.995.541l-.382-.26c-2.394.026-4.816-.186-7.181.072.039-.039.11-.116.498-.13-1.127.003-4.36-.141-3.949.214-.029-.232-2.468-.002-3.76.112l.2-.175c-1.09.23-1.125.29-2.646.363-.363-.02-.319-.134.162-.094-1.204-.08-.938.171-2.396.09l.542-.115c-1.236-.002-1.138.056-1.819.19-.777.075-2.35-.025-2.532-.179-.166.097-.843.23-1.572.19-.1-.059.166-.097.299-.117-2.07-.1-3.077.227-4.5.07-.03-.058-.124-.085-.241-.102 1.645-.01 2.968-.01 2.845.004-.002-.16-1.33-.177-.274-.406-1.067.129-2.888.404-4.182.34-.063-.015-.125-.029-.171-.054l.133-.019a5.063 5.063 0 00-.818.033c-.413-.023-.675-.04-1.073-.039-.154-.13-1.523-.06-2.185-.06.056.174-.812.153.002.29-.106-.012.125-.022.565-.033a13.4 13.4 0 00.282-.02l-.045.016 1.646-.025c-.523.092-1.069.17-1.802.08l-.922.289c-.224-.058-.5-.11-.789-.154l-.382-.037.008 1.083c-.058.153-.116.33-.173.39 0 1.241.266.769.111 2.383-.023.36-.011-1.067-.088-1.51-.133 2.49.17 1.47.15 3.85l-.197-.623c-.115 1.824.105 2.081.22 2.742.232 2.563-.38 1.82-.206 5.303.096.552.143-.182.24.37-.051 2.45.088 2.742.038 5.199-.293 1.31 0-1.25-.274.177l.065-1.867c-.154 1.609-.038-1.464-.212-1.213-.05 1.207.097 3.043.155 4.617-.132 0-.016-1.83-.193-1.103l.054.807c-.039-.22-.09-.26-.085-.732-.124.29-.008.95-.004 1.72.067.052.164.014.258-.242a.86.86 0 00-.046.206c.19 1.578.046 4.244.197 5.599-.04-.218-.052-.033-.083.038-.006.955.166 1.938.216 3.22-.097.697-.29-.404-.235 1.647.108.365.297-.546.293 1.172 0 0-.089-1.5-.166-.697.077 1.687-.035.545-.158 2.083.154.88-.054 1.682.196 1.868-.165.548-.104.402-.223 1.463.135-.473.135 2.01.297 1.94-.185.436-.228-1.796-.42-.408.123.951.169 2.716.368 2.862-.045.727-.118 1.057-.14 2.19a2.221 2.221 0 00-.044-.512c.134 2.012-.001 4.98.242 6.116-.29-.406-.035 4.277-.305 2.74.01.84.133 2.165.187 2.452.008.003.015-.012.025 0-.002.101-.012.076-.025 0-.226-.09-.058 2.087-.191 3 .125.47.083 1.978.158 2.893-.027-.408-.067-.625-.13-.48.093 1.027.007.772-.101 1.646.07 1.394.171-.255.277.587-.052 1.207-.142.182-.237.4l.228 1.797c-.023.363-.066.62-.128.766.066.621.162 1.175.054 2.05l-.007-1.54-.116.588.147 1.832c-.085 1.347-.191 1.774-.307 1.858l9.802.039-.106.048.312-.048h1.324c-.043.036-.147.069-.407.084.069.01.1.012.16.02.443.005.885.01 1.327.013 11.16.106 22.314.192 33.292.256-.117-.064-.218-.13-.152-.187h.91c-.03.054-.129.102-.374.12.154-.012.556-.072.87-.035l-.54.107.39.002c.082-.036.146-.078.459-.073-.004.039.044.06.106.077 2.459.014 4.905.025 7.343.037 1.593-.121 3.269-.021 4.904.023l1.626.006c.124-.002.253.003.377 0v.002l1.658.005c.868-.019 1.707-.04 2.29-.119.308 0 .694.067.775.13.291.003.579.003.872.003.32-.018.63-.023 1.17.004 5.085.015 10.11.025 15.03.026l2.268-.001c.04-.075.291-.156 1.057-.196.689.015 1.057.105 1.146.194 3.622-.002 7.19-.008 10.697-.018.654-.153 1.24-.284 1.647-.273l-.426.271c.092-.002.19-.002.285-.002.23-.128.448-.242.608-.242l-.456-.148z" fill="#989898"/><path d="M178.803 114.019h-.02c.006.046.013.031.02 0" fill="#FFA06A"/><path d="M233.67 115.263c-.062-.01-.12-.017-.156-.032l.082.027.073.005zm12.122-.032l-.116.202c.895-.03.007-.078.116-.202m12.046.073l1.496-.073-1.105.044zm45.35-35.248l-.283.225c-.17.706.003.944.283-.225M313.3 46.093c-.28.895-.62 1.763-.732 2.231.226-.395.62-1.496.732-2.231" fill="#033753"/><path d="M179.263 115.235l-.48.26 1.047-.07c.245-.069.107-.219-.567-.19m-3.066.169c-.204-.056-.006-.124.04-.173-.65.127-1.401.347-.98.585.646-.25.802-.145 1.496-.441.554-.032.967.082.873.177.196-.066.86.058 1.158-.105-.72-.201-1.633-.208-2.587-.043m-7.143-.104a4.58 4.58 0 00.591-.069l-.554.027c-.013.015-.02.027-.037.041m10.978-15.831c-.013-.014-.022.005-.032 0 .017.1.032.13.032 0M180 66.162c.129-.22.175 1.885.163-.662-.051.315-.107.51-.163.662m-12.162 49.164c.136-.005.265-.007.394-.012.034-.032.041-.063-.041-.083-.071.056-.17.083-.353.095M57.77 89.488l-.608-2.155.608 2.155m-1.466-6.732c-.054-.408-.14-.83-.239-1.26-.039-.082-.08-.179-.12-.227l.359 1.487z" fill="#FFF"/><path d="M174.349 44.576v-.004l.685-.007-.685.011m-1.869.121c.153-.038-.503-.077-.92-.129.34.002.762.008 1.21.012.096.06-.01.12-.29.117m7.408 67.031c.021-3.137.28-.65.342-2.8l-.135-2.774.08-.032c.055-.442-.034-.697-.051-.812.12.188.04-2.258.063-3.388l-.106.404c-.241-3.142.272-4.957.145-7.442l-.176-1.75.155-.364c-.089-1.025-.21-1.205-.153-2.884.28-5.902-.042-12.25.14-18.232-.034.075-.045.258-.068.62.395-5.245-.384-8.21-.076-12.941l.058.324c-.027-2.406.056.33.145-1.422-.189-.332-.14-3.058-.208-4.447.038.217.032.694.06 1.095.042-.259.154-.362.121-1.057-.268-1.537-.235-4.85-.313-7.295.031-.084.062-.241.095-.55l.098-1.401.896.084-.004-.33-6.643.185c.129-.064.527-.127-.016-.194-2.924.094-6.242-.05-9.062-.184l-1.077.176c-.25-.004-.465-.084-.193-.117-1.1-.075-.058.113-.586.182-.626.012-.827-.107-.429-.159-1.94.146-5.526.309-7.568.108l.398-.052c-1.59-.08-1.797.364-3.272.19l.284-.033c-3.455-.09-7.27.06-9.906-.224-.501.259-3.418-.129-3.64.234-1.972-.188-1.407-.252-4.184-.384-.741-.02-1.106.224-2.023.259l-.021-.192-1.247.196-.662-.23-.859.046c.342.011.728.088.676.142-1.344.08-3.276-.146-3.309-.244l-3.179.15c.072-.077.605-.1 1.025-.148-1.698.188-.309-.202-1.862-.03.206.043-.114.112-.149.15-.776-.116-2.54-.124-3.845-.082l.251-.13c-2.358-.042-4.97.044-7.616.03.948.066.73.292-.046.311l-.31-.201c-.501.123.81.078-.22.226-.987-.027-.663-.23-.096-.293l-1.2.065c-.072-.062.21-.092.285-.169-.494.125-2.074-.21-2.787.006l-.067-.062-5.999.056c-.043.173-.886.13-1.529.269-1.582-.062-3.339-.206-5.248-.198-1.34.08-.392.146-.994.248-.098-.16-2.003-.152-1.015-.261-2.291.015-2.924.019-5.821.136.314.067.668.096.484.15-.525.022-1.196-.072-1.12-.148l.14-.016c-3.252.225-7.503-.49-10.09-.17l.144-.016-2.685.161c-1.235-.032.741-.115-.174-.216-2.895.251-4.574-.058-6.958.109-1.845-.474-6.55.008-9.04-.3l.142.11c-.644.106-.777-.065-1.252-.092.067.084.698.102.297.16-1.836.038-3.712.026-5.607-.01-2.227-.052-4.482-.108-6.732-.162l2.1 7.489c.666 2.335.835 1.128 1.5 4.148l-.406-.763c1.583 4.61 2.84 9.599 4.364 14.123-.118-.259-.168-.246-.301-.695.172 1.021 1.06 3.592 1.158 3.567.2.72-.037.204.046.664.22 1.004.873 2.38.911 2.947.008.096-.117-.257-.18-.432.244.61.862 2.961.815 2.295.448 1.754 1.039 3.273 1.367 4.684.415.832.803 2.981 1.1 3.175-.255-.029.72 3.099 1.147 4.144-.174-.335.212.979-.006.591.372 1.242.75 2.366.799 2.1.419 2.405 1.575 4.516 1.625 5.951 1.212 3.646 2.231 6.668 2.046 6.91.807 2.45 8.464 7.296 12.469 9.26a17537.102 17537.102 0 0069.725 1.054c5.21.067 10.485.133 15.802.196 4.426.054 8.894.102 13.368.151h5.74c-.04-.293-.06-2.494-.085-3.503" fill="#4C4C4C"/><path d="M178.784 114.019l.007.223h.049v-.163a.338.338 0 00-.056-.06m1.35 1.212H180c.046.03.09.032.134 0" fill="#033753"/><path d="M179.008 114.154l-.005-.12c-.061-.03-.049-.064-.003-.096l-.044-1.132c-.102.043-.162.97-.167 1.564-.003.017-.005-.002-.005.008h.194c.005.007.008-.003.01 0h.015l-.098-.282c.034 0 .069.03.103.058" fill="#033753"/><path d="M178.784 114.019l.095.28h.014l-.007-.222c-.034-.03-.068-.058-.102-.058" fill="#033753"/><path d="M178.932 46.274c-.039.307-.078.464-.119.548.097 2.432.056 5.73.394 7.26.044.691-.097.794-.153 1.052-.032-.4-.027-.875-.076-1.09.086 1.382.027 4.096.263 4.426-.11 1.743-.216-.98-.182 1.415l-.073-.323c-.39 4.71.593 7.66.095 12.88.031-.36.046-.542.085-.617-.227 5.954.177 12.271-.175 18.145-.071 1.67.08 1.85.194 2.87l-.197.363.221 1.741c.161 2.473-.486 4.28-.18 7.408l.132-.403c-.027 1.124.07 3.559-.08 3.372.024.114.136.368.068.808l-.103.032.168 2.761c-.078 2.139-.403-.336-.43 2.786.034 1.005.056 3.195.107 3.487h.02c.002-.007.004.008.007-.006.004-.467.065-1.197.167-1.231l.042.892c-.044.024-.056.051.005.074l.004.096c.018.011.037.03.056.045v.13h.227v-.164c.082.069.163.157.243.2h.131c.146-.084.28-.51.387-1.846l-.182-1.82.146-.586.007 1.531c.138-.868.017-1.418-.066-2.035.076-.145.131-.401.16-.762l-.286-1.786c.116-.215.233.8.296-.397-.133-.836-.262.802-.35-.582.136-.87.248-.617.131-1.637.078-.145.127.073.161.478-.092-.91-.039-2.406-.2-2.876.168-.905-.043-3.069.241-2.979-.068-.284-.223-1.6-.236-2.435.341 1.524.022-3.126.387-2.723-.306-1.128-.136-4.077-.306-6.076.024.11.073.33.058.508.024-1.127.117-1.453.175-2.177-.253-.143-.311-1.896-.467-2.841.243-1.379.297.838.53.405-.204.068-.204-2.397-.374-1.927.15-1.056.073-.91.282-1.453-.316-.186-.051-.982-.246-1.856.156-1.528.295-.394.2-2.072.097-.797.209.695.209.695.005-1.71-.234-.802-.372-1.165-.066-2.038.177-.943.299-1.637-.063-1.273-.282-2.249-.272-3.198.039-.07.053-.256.102-.038-.19-1.346-.01-3.995-.248-5.563a.612.612 0 01.06-.204c-.119.254-.24.292-.328.24-.005-.765-.15-1.42.005-1.709-.005.47.058.508.107.728l-.068-.802c.224-.722.078 1.096.243 1.096-.073-1.566-.258-3.387-.194-4.587.218-.25.075 2.804.27 1.203l-.086 1.856c.346-1.418-.024 1.127.346-.175.063-2.44-.11-2.73-.046-5.166-.122-.548-.18.182-.302-.366-.219-3.46.55-2.723.258-5.269-.146-.658-.423-.912-.278-2.725l.249.62c.024-2.365-.356-1.351-.19-3.826.097.44.083 1.858.112 1.5.197-1.603-.141-1.133-.141-2.367.075-.059.148-.235.221-.387-.005-.344-.007-.707-.012-1.077-.38-.029-.764-.058-1.126-.084-.049.519-.09 1-.127 1.394" fill="#033753"/><path fill="#FFF" d="M132.568 43.667l.004.055.307-.048zm13.378 71.564l1.182.078-1.182-.078m4.864.098a.313.313 0 00.127-.095l-.012-.003-.114.098zm-56.184-.098c-.328.034-.647.068-.977.105.542.017.963.02.977-.105M57.228 88.782l.005.002-.07-.238zm115.784 26.486c-.005-.015.012-.027.036-.037l-.345.027.309.01zm1.632-.037l-.725.056c.25 0 .56.008.725-.056m-10.454.035c.603.017 1.511.17 2.353.119l.079-.064c-.395.12-1.86-.189-2.433-.055m-58.721.15l.416-.185-1.29.061z"/><path fill="#B7B7B7" d="M176.351 0l3.953 66.713 146.858-46.7z"/><path fill="#D0D0D0" d="M31.405 20.789L181 66.713 177.051 0z"/><path d="M232.86 130.074l-.817-.983c-.036-.128.09-.063.309.205-.127-.113.138.241.52.741l.659-.17c-.188.06-.391.12-.671.207zm-2.07-2.468a282.99 282.99 0 01-.547-.644l.548.642-.002.002zm-28.66-67.662c.091-.067.313-.182.83-.397l.484-.015-1.313.412zm-9.031 2.833l1.235-.544c.226-.032.385-.017.322.056l-1.557.488zm48.1-15.357c.05.025.1.062.08.113l-1.072.337c.063-.076.314-.204.993-.45zm3.764 76.724c-1.497.776-3.535 2.273-4.444 2.397l.725-.423c-.083-.017-.604.069-1.55.703-.3.191-.444.419-.022.187l-.773.35c.29-.321 2.126-1.345 3.275-2.002-.338.247-1.218.77-.898.707.994-.605 1.977-1.203 2.94-1.787-.384.272-.585.488-.75.644 1.16-.527.794-.538 1.637-1.002.353-.118.593-.2.399-.046a28.177 28.177 0 013.035-1.608s-.987.626-.62.523l.584-.308c1.631-.977 2.084-1.398 4.089-2.57 2.464-1.595 5.08-2.525 6.79-3.641.068-.111-1.399.609-.252-.048-.138.228.74-.295.822-.278 1.172-.846 1.885-.951 2.719-1.547-.188.153.573-.191 1.08-.408-.064.223 1.427-.683-.304.506 1.777-1.23 3.384-1.727 4.611-2.814l-.506.216 1.94-.942-.082.04c.836-.413.945-.52 2.134-.957-.48.283-1.124.662-1.603.946 1.087-.412 2.053-1.231 3.175-1.836.005.134-1.154.66-.752.614.81-.408 1.451-.85 2.178-1.275l-.073.115c2.056-.92 5.474-3.425 7.035-3.998-.064-.011.101-.147-.008-.134.573-.224 1.892-.788.68-.05.69-.365 1.448-.834 1.764-1.087-.63.222-.751.343-1.031.349l2.75-1.54c.31-.164-.2.18-.59.387 3.434-1.419 6.465-3.774 10.348-5.351-.466.122.222-.228.542-.483 1.21-.605 3.003-1.589 4.14-2.115l-.319.252c2.8-1.59 4.703-2.735 6.601-3.69.077-.077.037.103-.291.302 1.319-.858 3.184-1.354 3.428-1.813l-.522.25c2.761-1.41 5.693-3.206 8.505-4.744.746-.197-1.622.883-.945.758 1.994-.982 3.917-2.169 6.08-3.25-.338.202-.248.177-.409.277 2.18-1.03-.318-.029 1.488-.96-.058.13.04.102.657-.175l.46-.404c.098-.027.135.076-.109.254.708-.584 3.152-1.74 3.699-2.224.18-.048-.188.333.09.258.974-.46 1.597-.867 2.2-1.263l-.003.003c.728-.249 2.354-1.133 2.015-.93 1.739-.86.226-.23 1.478-1.015l-1.402.655 2.391-1.313-.914.582c1.137-.529 2.203-1.264 3.49-1.944l-.636.224 1.44-.834c.242.105 1.9-.956 1.206-.318 2.78-1.36 4.408-2.527 6.889-3.864-.434.228-.246.178-.317.253 1.47-.73 2.293-1.287 3.112-1.842-.148.151-.483.354-.464.406 1.716-.91.987-.659 2.85-1.717-.482.354-.298.304.23.05-.116-.024.294-.303.632-.506-1.231 1.118 2.2-.98 1.455-.216.054-.129 2.912-1.848 1.992-1.545l-.5.3c-.114-.069.607-.4 1.133-.689-.265.163-.543.339-.54.364 1.032-.61 2.129-1.191 3.231-1.777-2.114-2.766-4.187-5.59-6.311-8.183.213.21.263.184.556.57-.53-.916-2.343-3.097-2.439-3.045-.458-.626-.03-.203-.276-.617-.573-.886-1.733-2.004-1.965-2.529-.04-.09.213.209.337.356-.466-.507-1.919-2.558-1.645-1.941-1.07-1.532-2.21-2.803-3.038-4.044-.723-.67-1.864-2.594-2.244-2.695.28-.044-1.815-2.727-2.622-3.598.299.27-.558-.863-.196-.559-.817-1.07-1.599-2.025-1.559-1.76-1.261-2.157-3.205-3.828-3.744-5.172-1.258-1.56-2.465-3.06-3.64-4.519-1.203-1.52-2.37-2.998-3.52-4.453.04-.05.406.381.603.609.236.3.537.68.832 1.057.587.758 1.153 1.487 1.21 1.347l-2.866-3.486c-.813.282-1.61.56-2.454.85-.72.243-1.486.486-2.354.741-.848.232.442-.25.71-.38-3.224 1.12-6.301 1.952-9.158 2.992 0-.025.305-.148.597-.259-.57.188-1.34.381-1.243.47l.549-.204c.96-.13-2.165 1.038-2.242 1.153.873-.613-2.885.82-1.47-.054-.368.138-.825.337-.715.381-.564.155-.756.169-.215-.092-2.027.701-1.263.588-3.117 1.166-.01-.053.356-.191.529-.314-.905.397-1.816.795-3.396 1.24.083-.059-.11-.043.357-.189-2.686.86-4.5 1.708-7.481 2.535.8-.5-1.028.241-1.246.094l-1.568.555.667-.103c-1.39.43-2.573.959-3.789 1.27l1.007-.405-2.592.854 1.497-.387c-1.375.542.228.201-1.64.726.37-.138-1.39.435-2.15.546l.004-.002c-.668.277-1.354.564-2.397.838-.287.021.146-.285-.04-.272-.627.378-3.24 1.067-4.045 1.511.274-.13.256-.24.155-.23l-.527.312c-.658.16-.758.169-.68.052-1.943.584.695.057-1.638.67.178-.067.084-.06.454-.197-2.326.666-4.433 1.482-6.576 2.081-.686 0 1.839-.628 1.07-.57-3.047.993-6.258 2.222-9.232 3.103l.558-.151c-.322.408-2.247.553-3.702 1.154.359-.136.432-.304.342-.243-2.042.592-4.123 1.369-7.167 2.418l.358-.19c-1.213.31-3.157.95-4.457 1.322-.36.191-1.102.411-.621.375-4.107.838-7.52 2.598-11.156 3.366.421-.134.985-.38.65-.274l-2.986 1.009c.276.046.418-.05 1.08-.153-.359.191-1.19.513-1.935.746 1.327-.505-.073-.191-.678-.076.109.006-.079.11-.018.132-1.637.277-5.458 2.115-7.65 2.642l.095-.1c-.792.286-1.505.602-2.376.854-.404-.028.832-.333.851-.467-1.211.39-2.314 1.019-3.458 1.224l1.75-.636c-1.25.21-1.376.297-2.274.55l.089-.024-2.083.57.54-.12c-1.406.845-3.078 1.04-5.05 1.923 1.92-.852.287-.236.39-.443-.536.119-1.35.32-1.137.203-.927.433-1.648.406-2.956 1.023-.077-.033-1.037.32-.859.122-1.246.437.326-.004.24.094-1.885.785-4.628 1.218-7.345 2.334-2.186.785-2.709 1.118-4.492 1.776l-.629.198c-.381.034.706-.4.706-.4-1.24.306-2.151.606-3.279 1.024.217-.117-.034-.08-.4-.029-.917.303-.556.381-1.795.685.192-.122.43-.298.855-.493l-3.217 1.215c-.326.004.635-.346 1.01-.53-1.248.436-3.242 1.107-3.587 1.37l.825-.204c-.457.151-.274-.046.057-.178 1.045-.452 1.574-.44 1.651-.408l-.788.283c.915.044 3.194-1.055 4.808-1.543l-.489.35-11.976 3.757c-.108-.086-.156-.111-.1-.023l.033.044-.075.023.621 1.995 1.212 1.227.287.54-1.008-1.198c.48.758.918 1.123 1.378 1.564.044.157.177.387.393.687l1.36 1.247c.065.235-.68-.502.065.476.634.584-.353-.775.611.264.482.76.242.62.988 1.36.044.155-.13.013-.418-.287.655.664 1.603 1.87 2.015 2.152.483.806 2.04 2.389 1.794 2.475.232.186 1.197 1.135 1.75 1.786-1.222-1.012 2.037 2.468 1.533 2.351.94.72 2.762 3.133 4.185 4.613-.09-.075-.267-.22-.372-.368.72.898.876 1.206 1.311 1.807.261-.025 1.448 1.321 2.17 1.98.744 1.218-.745-.498-.615-.029.09-.166 1.706 1.773 1.51 1.312.593.911.55.754.768 1.296.328-.027.678.743 1.38 1.325.897 1.286.061.47 1.225 1.738.458.68-.592-.433-.592-.433 1.116 1.346.679.504 1.006.715 1.38 1.566.503.836.878 1.449.875.967 1.659 1.614 2.276 2.366.02.077.132.23-.042.086 1.007.956 2.625 3.136 3.808 4.24a.77.77 0 01.095.193c-.088-.265-.032-.362.058-.368.504.6 1.03 1.034 1.116 1.346-.303-.371-.37-.368-.547-.513l.57.593c.326.69-.769-.82-.878-.727 1.073 1.189 2.39 2.521 3.134 3.5.021.316-1.884-2.166-.964-.8l-1.162-1.506c.702 1.304-.723-.9-.113.328 1.559 1.955 1.864 2.087 3.418 4.036.44.364 0-.241.44.122 2.411 2.602 1.422 2.445 3.282 4.285.527.438.878.488 1.969 1.993l-.568-.35c1.532 1.87 1.118.865 2.63 2.902-.352-.293-1.27-1.415-1.056-1.118.922 1.367.836.816 1.643 1.784l.023.32 5.447 6.222c-.144-.086-.502-.423-.119.127l2.163 2.54 2.256-.677 9.498-5.045.416-.433z" fill="#E5E5E5"/><path d="M197.509 73.983a3.32 3.32 0 01-.093-.692c-.044.262-.91-1.707.093.692m137.709-26.905l-.759-2.198.76 2.198zm-77.38 56.068l.387.004-.005-.048zM334.46 44.88l.087.245-.083-.243zM51.081 24.271l.07.005c.417-.024.18-.02-.07-.005" fill="#0076BD"/><path d="M151.341 95.78c-.186.511-.284.667-.341.724l.343-.885.008-.067a.636.636 0 01-.01.228zm-60.98 6.762l.694-.06.612.01-1.305.05zm89.017-34.23l.622-1.996-.077-.025.035-.042c.055-.088.006-.065-.1.02l-11.989-3.757-.491-.35c1.616.488 3.897 1.586 4.815 1.544l-.79-.285c.078-.031.606-.043 1.653.408.33.132.515.331.056.18l.825.203c-.345-.264-2.34-.935-3.59-1.37.378.182 1.34.535 1.013.53-1.09-.411-2.167-.82-3.22-1.218.426.197.664.374.854.496-1.238-.306-.88-.383-1.795-.686-.368-.051-.62-.09-.4.03a27.564 27.564 0 00-3.283-1.026s1.088.435.707.4l-.632-.197c-1.785-.661-2.309-.992-4.494-1.778-2.72-1.117-5.466-1.552-7.353-2.336-.086-.098 1.488.341.24-.094.177.198-.783-.155-.862-.122-1.308-.617-2.03-.59-2.959-1.024.213.117-.599-.084-1.136-.203.102.207-1.532-.41.391.443-1.976-.885-3.648-1.079-5.057-1.924l.54.12-2.085-.572.09.025c-.9-.253-1.024-.34-2.275-.55l1.75.636c-1.144-.205-2.247-.835-3.462-1.224.019.134 1.257.439.854.467-.874-.253-1.586-.57-2.38-.854l.094.1c-2.192-.528-6.017-2.369-7.657-2.645.06-.023-.127-.126-.016-.132-.606-.115-2.007-.43-.68.076-.746-.233-1.577-.557-1.936-.749.662.104.804.201 1.08.154l-2.99-1.008c-.335-.106.231.14.651.272-3.638-.767-7.056-2.528-11.167-3.367.482.035-.261-.184-.62-.375-1.303-.374-3.247-1.012-4.464-1.324l.359.191c-3.046-1.052-5.13-1.83-7.174-2.42-.088-.063-.017.107.344.244-1.457-.602-3.384-.748-3.706-1.156l.558.151c-2.977-.881-8.96-2.061-12.01-3.058-.77-.057 1.758.571 1.069.573-2.144-.6-4.253-1.416-6.58-2.084.368.137.276.13.454.199-2.336-.615.305-.088-1.64-.67.078.114-.024.105-.68-.054l-.53-.313c-.1-.007-.117.1.156.23-.805-.444-3.42-1.134-4.048-1.512-.188-.011.246.293-.04.272-1.044-.272-1.733-.561-2.401-.839l.006.002c-.762-.111-2.526-.684-2.156-.546-1.869-.525-.263-.184-1.639-.726l1.5.387-2.595-.855 1.007.406c-1.217-.31-2.4-.839-3.792-1.272l.666.104-1.57-.556c-.217.147-2.046-.592-1.246-.092-2.984-.828-4.801-1.679-7.488-2.539.468.146.272.13.357.192-1.582-.449-2.493-.845-3.399-1.242.17.12.54.259.53.314-1.856-.58-1.092-.467-3.12-1.167.538.26.348.246-.216.092.108-.046-.347-.245-.718-.383 1.419.876-2.343-.56-1.47.054-.076-.115-3.207-1.282-2.243-1.154l.547.203c.1-.086-.672-.281-1.242-.469.29.111.595.234.597.259-2.86-1.039-6.113-.997-9.343-2.118.271.13 1.563.614.714.382-.869-.255-1.637-.5-2.356-.742l-2.457-.85c-.871 1.059-1.77 2.15-2.869 3.489.058.14.624-.59 1.21-1.351l.834-1.056c.196-.23.562-.66.604-.61-1.151 1.457-2.32 2.934-3.523 4.458l-3.647 4.522c-.537 1.345-2.485 3.017-3.746 5.175.039-.264-.744.692-1.562 1.763.365-.305-.493.83-.194.56-.808.87-2.905 3.556-2.625 3.6-.38.1-1.524 2.027-2.248 2.698-.827 1.241-1.97 2.514-3.041 4.046.276-.617-1.179 1.436-1.647 1.943.125-.147.38-.446.34-.356-.234.525-1.394 1.644-1.97 2.531-.243.414.185-.01-.274.615-.098-.05-1.911 2.133-2.441 3.05.294-.386.342-.362.555-.572-1.5 1.83-2.97 3.778-4.449 5.737C1.948 61.9 3.852 62.9 5.617 63.942c.004-.025-.274-.201-.539-.362.526.287 1.248.62 1.136.687l-.503-.3c-.92-.303 1.94 1.42 1.994 1.546-.744-.763 2.69 1.335 1.457.216.338.204.749.483.633.508.528.255.712.303.229-.051 1.865 1.06 1.136.808 2.854 1.718.019-.051-.317-.255-.465-.406.82.556 1.643 1.115 3.115 1.843-.071-.074.117-.023-.317-.253 2.484 1.338 4.113 2.507 6.896 3.867-.695-.638.965.426 1.207.32l1.441.834-.637-.225c1.29.68 2.357 1.418 3.495 1.945l-.916-.582 2.394 1.316-1.403-.657c1.253.786-.261.157 1.48 1.015-.338-.203 1.287.683 2.016.932l-.003-.004c.604.397 1.228.807 2.205 1.266.278.073-.092-.306.088-.26.549.485 2.994 1.644 3.702 2.228-.244-.18-.207-.281-.11-.255l.461.403c.618.278.716.304.66.176 1.806.931-.692-.07 1.488.96-.161-.098-.071-.075-.409-.278 2.167 1.085 4.09 2.273 6.086 3.256.677.124-1.693-.958-.946-.76 2.815 1.538 5.75 3.335 8.513 4.747l-.52-.25c.242.459 2.109.955 3.43 1.814-.329-.2-.37-.38-.292-.303 1.9.956 3.805 2.102 6.607 3.694l-.318-.253c1.138.53 2.932 1.514 4.143 2.118.32.254 1.01.607.543.482 3.887 1.58 6.92 3.936 10.36 5.358-.392-.209-.902-.554-.591-.39l2.754 1.541c-.282-.003-.403-.126-1.035-.348.317.253 1.077.722 1.766 1.09-1.213-.74.108-.176.681.048-.107-.013.058.124-.007.134 1.562.573 4.984 3.081 7.041 4l-.073-.114c.728.425 1.37.868 2.18 1.276.403.046-.758-.48-.752-.615 1.123.605 2.09 1.427 3.178 1.838-.48-.284-1.124-.663-1.604-.945 1.192.435 1.299.542 2.136.956l-.083-.04 1.944.944-.508-.216c1.228 1.086 2.836 1.585 4.615 2.815-1.733-1.19-.24-.284-.301-.506.505.216 1.267.561 1.079.408.834.596 1.548.701 2.721 1.548.083-.017.963.506.823.278 1.148.657-.318-.063-.253.048 1.712 1.117 4.332 2.048 6.8 3.644 2.005 1.173 2.458 1.597 4.091 2.572l.584.31c.368.104-.62-.525-.62-.525a27.85 27.85 0 013.038 1.61c-.194-.155.046-.073.399.046.844.463.478.475 1.639 1.002-.165-.155-.367-.372-.75-.644.963.584 1.947 1.184 2.942 1.788.32.063-.56-.458-.899-.707 1.15.657 2.989 1.682 3.28 2.004l-.775-.35c.422.231.278.003-.023-.187-.946-.636-1.468-.722-1.549-.705l.724.424c-.91-.125-2.95-1.623-4.449-2.4l.417.436 10.476 5.562-.098.129c-.224-.058-.456-.12-.662-.17.19.057.394.12.674.206l.12-.148.181.096c.655-.766 1.303-1.529 1.93-2.265.385-.55.026-.212-.118-.126l5.45-6.227.023-.32c.808-.972.722-.418 1.645-1.786.217-.3-.704.826-1.057 1.119 1.514-2.039 1.1-1.033 2.635-2.907l-.568.35c1.092-1.505 1.44-1.553 1.969-1.992 1.863-1.843.87-1.684 3.287-4.288.44-.364 0 .241.44-.125 1.554-1.95 1.86-2.083 3.42-4.037.61-1.228-.816.977-.114-.328l-1.16 1.506c.92-1.366-.987 1.117-.968.8.745-.978 2.063-2.311 3.138-3.503-.11-.09-1.205 1.42-.88.73l.573-.596c-.177.147-.244.144-.55.515.087-.312.615-.747 1.12-1.347.09.006.144.104.057.368a.737.737 0 01.094-.193c1.186-1.104 2.806-3.287 3.814-4.243-.175.144-.064-.01-.043-.086.617-.753 1.401-1.4 2.278-2.368.375-.613-.504.115.88-1.45.326-.211-.11.632 1.007-.715 0 0-1.054 1.113-.593.43 1.163-1.266.328-.451 1.226-1.737.703-.583 1.052-1.355 1.382-1.326.219-.542.175-.385.768-1.3-.196.464 1.422-1.477 1.51-1.31.13-.47-1.359 1.247-.614.027.722-.657 1.91-2.006 2.173-1.981.435-.6.589-.909 1.31-1.81-.105.148-.282.294-.37.369 1.424-1.48 3.247-3.894 4.19-4.614-.507.117 2.755-3.369 1.531-2.353.557-.652 1.522-1.602 1.754-1.79-.248-.084 1.313-1.67 1.796-2.476.413-.281 1.36-1.488 2.017-2.153-.287.299-.462.442-.418.287.747-.74.507-.6.987-1.36.967-1.043-.024.32.614-.267.742-.977 0-.241.063-.475l1.36-1.25c.22-.298.352-.528.396-.687.459-.439.9-.805 1.38-1.564l-1.012 1.2.29-.54 1.213-1.229z" fill="#DBDBDB"/><path d="M71.885 100.676c-.068.017-.139.05-.127.124l1.26.667c-.06-.11-.343-.328-1.133-.791m43.667 23.118l1.827.97-1.413-.963c-.275-.092-.477-.114-.414-.007m-8.525-4.924l1.54.818c-.095-.104-.346-.3-.94-.687l-.6-.13z" fill="#0076BD"/></g></svg>